<svg width="33" height="33" viewBox="0 0 33 33" fill="none" xmlns="http://www.w3.org/2000/svg">
<path d="M27.1513 27.0679C29.2992 24.9201 26.4499 18.5884 20.7873 12.9258C15.1247 7.2632 8.79307 4.41396 6.64519 6.56184C4.49731 8.70972 7.34655 15.0414 13.0092 20.704C18.6718 26.3666 25.0034 29.2158 27.1513 27.0679Z" stroke="#1DA1F2" stroke-width="2" stroke-linecap="round" stroke-linejoin="round"/>
<path d="M20.7873 20.704C26.4499 15.0414 29.2992 8.70971 27.1513 6.56182C25.0034 4.41394 18.6718 7.26318 13.0092 12.9258C7.34655 18.5884 4.49731 24.92 6.64519 27.0679C8.79307 29.2158 15.1247 26.3666 20.7873 20.704Z" stroke="#1DA1F2" stroke-width="2" stroke-linecap="round" stroke-linejoin="round"/>
<path d="M16.8958 18.3149C17.7242 18.3149 18.3958 17.6433 18.3958 16.8149C18.3958 15.9865 17.7242 15.3149 16.8958 15.3149C16.0674 15.3149 15.3958 15.9865 15.3958 16.8149C15.3958 17.6433 16.0674 18.3149 16.8958 18.3149Z" fill="#1DA1F2"/>
</svg>